# xmcd
#
# Track frame offsets: 
#        150
#        18148
#        35953
#        48676
#        62940
#        78615
#        95681
#        105609
#        125568
#        137748
#        158645
#        178073
#        191766
#        209116
#        229096
#        243484
#        261332
#        276900
#        293111
#        306182
#        319779
#
# Disc length: 4459 seconds
#
# Revision: 3
# Processed by: cddbd v1.5.2PL0 Copyright (c) Steve Scherf et al.
# Submitted via: ExactAudioCopyFreeDBPlugin 1.0
#
DISCID=49116915
DTITLE=Linda Ronstadt - 1999 - Box Set Cd 2
DYEAR=1999
DGENRE=Pop
TTITLE0=Blue Bayou
TTITLE1=Try Me Again
TTITLE2=Heat Wave
TTITLE3=Heart Like A Wheel
TTITLE4=It Doesn't Matter Anymore
TTITLE5=You're No Good
TTITLE6=When Will I Be Loved
TTITLE7=Long Long Time
TTITLE8=Different Drum
TTITLE9=Little Girl Blue
TTITLE10=I Get Along Without You Very Well
TTITLE11=My Funny Valentine
TTITLE12=When You Wish Upon A Star
TTITLE13=It Never Entered My Mind
TTITLE14=Skylark
TTITLE15=What's New
TTITLE16=Quiereme Mucho
TTITLE17=Frenesi
TTITLE18=Mentira Salome
TTITLE19=La Mariquita
TTITLE20=El Crucifijo de Piedra
EXTD=YEAR: 1999
EXTT0=
EXTT1=
EXTT2=
EXTT3=
EXTT4=
EXTT5=
EXTT6=
EXTT7=
EXTT8=
EXTT9=
EXTT10=
EXTT11=
EXTT12=
EXTT13=
EXTT14=
EXTT15=
EXTT16=
EXTT17=
EXTT18=
EXTT19=
EXTT20=
PLAYORDER=
